<?xml version="1.0" encoding="utf-8"?>
<!DOCTYPE svg PUBLIC "-//W3C//DTD SVG 1.1//EN" "http://www.w3.org/Graphics/SVG/1.1/DTD/svg11.dtd">
<svg version="1.1" id="Layer_1" xmlns="http://www.w3.org/2000/svg" xmlns:xlink="http://www.w3.org/1999/xlink" x="0px" y="0px"
	 viewBox="0 14.6899 1280 623.3101" enable-background="new 0 14.6899 1280 623.3101" xml:space="preserve">
<g>
	<path opacity="0.97" enable-background="new    " d="M0,14.6899V66.88v30.19v46.01V191.09v249.38l0.36,1.39
		c0.43,9.78-0.26,19.63,0.99,29.36c4.48-3.32,9.86-4.94,14.9-7.15c11.15-4.38,21.53-10.42,32.39-15.39
		c4.28-2.87,9.48-3.66,14.02-5.99c7.98-3.52,15.7501-7.54,23.94-10.57c2.66-0.96,5.15-2.31,7.67-3.57l1.35-0.35
		c-0.03,13.3799-0.93,26.81,0.6,40.14c0.6,10.19,3.09,20.16,6.2,29.84c5,14.33,11.71,28.08,19.91,40.86
		c3.65,5.5,6.88,11.33,11.4,16.2c6.08,6.61,11.77,13.61,18.6201,19.46c4.89,4.18,9.68,8.49,14.9399,12.19
		c7.86,5.63,15.94,11.02,24.65,15.24c7.13,3.4,14.07,7.28,21.65,9.61c13.77,4.33,28.02,7.2,42.42,8.28
		c14.95,0.71,30.01,0.28,44.85-1.68c7.26-2.29,14.88-3.4,21.89-6.4301c8.68-2.67,16.78-6.87,24.63-11.37
		c7.5-4.69,15.12-9.22,22.06-14.73c6.51-5.22,13.34-10.17,18.8701-16.48c3.97-4.49,7.98-8.93,11.76-13.58
		c6.73-6.97,10.8699-15.8,16.4299-23.62c5.25,4.54,9.4,10.16,14.47,14.88c1.66,1.78,4.77,2.66,6.49,0.44
		c6.8801-8.55,10.2001-19.2,14.1901-29.26c5.01-13.35,7.89-27.38,10.37-41.38c1.63-10.52,1.79-21.19,1.86-31.81
		c-0.14-6.17,0.12-12.38-0.74-18.52c-1.1-7.61-2.47-15.18-3.9501-22.72c-2.1099-9.3-4.5699-18.55-7.9399-27.48
		c-3.02-7.89-6.08-15.75-10.23-23.12c-1.3-2.6-2.5-5.25-3.6799-7.9c4.7699-1.2,9.74-0.9,14.6099-1.1801
		c12.6801-0.31,25.3601-0.39,38.04-0.5c4.8401,0.1201,9.78-0.3199,14.54,0.79c3.1699,0.65,4.3,3.99,5.54,6.58
		c5.51,13.0699,10.71,26.28,15.21,39.73c1.99,6.73,4.1899,13.43,5.5699,20.31c-1.25,3.17-3.5299,5.79-5.11,8.79
		c-5.6499,10.06-9.46,21.24-10.84,32.69c-1.1801,10.22,1.14,20.43,2.87,30.46c2.02,10.08,7.08,19.3,13.03,27.59
		c3.9299,4.97,9.22,8.59,14.08,12.58c13.0499,7.81,27.17,14.37,42.3099,16.77c21.1301,3.16,42.54,2.73,63.8401,3.32
		c25.95,0.46,51.97-0.11,77.84,2.42c25.03,0.7,50.08,0.65,75.12,0.86c14.6899,0.32,29.47,0.1801,44.01,2.6
		c7.5801,0.23,11.38,7.43,15.9399,12.35C891.76,594.21,931.4,617.22,974.12,623.3c14.53,2.29,29.2899,1.3,43.9,0.46
		c14.26-0.78,28.21-4.76,41.21-10.56c22.63-8.56,43-22.69,59.5701-40.28c6.7-6.73,12.72-14.12,18.36-21.75
		c4.1699-6.48,8.02-13.19,11.36-20.13c4.66-8.93,8.03-18.44,11.74-27.78c0.78-1.67,1.62-4.12,3.84-4.11
		c3.66-0.08,6.7101,2.31,9.87,3.86c19.01,10.19,38.13,20.18,57.63,29.42c10.84,4.81,21.6801,9.63,32.55,14.42
		c4.71,2.04,9.36,4.39,14.45,5.38c1.25-10.06,0.5801-20.24,1.02-30.36l0.38-1.37V230.98V178v-44.99v-38V64.99V14.71
		C853.3301,14.6899,426.67,14.6899,0,14.6899z M550.4099,121.54c0.1602,3.64-2.3799,6.66-3.75,9.86
		c-1.1699,0.16-2.3599,0.55-3.5299,0.28c-10.9601-2.32-21.4701-6.81-32.65-8.04c-0.11,4.95,3.91,9.27,2.63,14.29
		c-1.35,3.9-5.61,5.73-9.2999,6.71c-2.3101-0.45-6.05-0.83-6.65-3.47c3.5599-4.64,8.86-8.31,10.38-14.28
		c0.45-4.12-0.02-8.28-0.16-12.41c1.4601-0.52,2.9601-1.01,4.5499-0.95c10.1301,0.04,20.04,2.31,29.9401,4.23
		C544.87,118.42,549.6699,117.44,550.4099,121.54z M439.99,109.95c4.3201-4.92,8.0901-11.49,15.05-12.8
		c7.27-1.15,14.83-0.7101,21.8999,1.35c3.2101,0.68,6.5801,2.36,9.8601,1.51c3.87-3.92,5.3-9.38,6.8899-14.48
		c1.5601-3.5801,6.0601-4.03,9.25-2.49c3.26,0.75,3.6101,4.4299,5.2101,6.8099c4.3099,2.51,9.3099,0.5699,13.9,0.1901
		c3.6099-0.28,6.25,2.6699,7.54,5.71c0.1899,2.99,0.9099,6.31-0.7301,9.03c-1.5699,2.36-3.97,4.46-6.86,4.86
		c-2.8101,0.23-4.9199-2.06-6.3201-4.2c-2.48-3.72-0.01-8.2-0.0299-12.2501c-2.92,0.8801-5.29,3.1801-6.4,5.9901
		c-0.74,2.51-0.37,5.17-0.33,7.74c-3.83-0.15-7.66-0.29-11.4801-0.5c0.2301,3.58,0.53,7.15,0.9301,10.72
		c0.2101,3.63,1.24,7.82-1.25,10.94c-2.75,3.81-6.24,7.86-11.21,8.44c-6.9301,1.02-13.99,1.0699-20.9701,0.61
		c-8.2799-2.28-16.22-5.8-23.48-10.45c-2.7999-2.08-6.8099-3.87-7.4199-7.67C434.72,115.34,437.9,112.85,439.99,109.95z
		 M129.45,306.29c8.34-9.57,18.31-17.65,28.67-24.92c14.35-8.56,28.52-18.16,44.98-22.21c17.15-6.53,35.6-9.71,53.96-9.52
		c11.46-0.06,22.96-0.03,34.37,1.24c16.56,2.63,32.62,7.68,48.14,13.93c0.99,0.65,1.97,1.31,2.95,2
		c-2.22,6.92-6.56,12.81-10.35,18.92c-16.07-5.33-32.23-11.24-49.17-12.88c-20.92-0.67-42.25-0.81-62.58,4.83
		c-10.81,3.03-21.29,7.26-31.23,12.46c-2.23,1.09-5.52,3.39-3.49,6.17c1.97,2.5,4.87,6.82,8.54,4.88
		c5.32-3.19,11.44-4.47,17.07-6.97c17.45-6.43,36.13-9.52,54.73-9.1c18.6-0.32,36.94,4.19,54.23,10.75
		c1.86,0.92,5.41,1.91,4.12,4.67c-1.11,3.35-1.03,7.28-3.44,10.05c-1.36,1.58-2.67,3.28-2.92,5.42
		c-0.55,4.42-4.43,7.12-7.32,10.0699c-3.9-1.06-7.76-2.24-11.6-3.49c-9.4399-3.06-19.39-3.85-29.21-4.76
		c-9.17-0.87-18.37,0.35-27.41,1.85c-7.77,1.52-15.69,3.26-22.67,7.14c-2.21,1.2-5.05,3.57-3.01,6.24
		c5.81,8.58,12.85,16.3,19.1,24.58c4.3799,5.87,9.56,11.18,13.1,17.64c-2.32,1.67-5.24,1.54-7.95,1.67
		c-1.27-0.54-2.45-1.26-3.46-2.19c-12.4301-15.41-24.8-30.86-37.23-46.27c-6.86-8.41-13.67-16.87-20.81-25.04
		c-1.89-1.86-4.45-5.01-7.37-3.25c-9.44,4.86-17.3,12.16-25.54,18.75c-5.43-2.76-11.01-5.3-16.11-8.63
		C129.01,309.49,129.29,307.73,129.45,306.29z M266.49,433.59c-0.04-0.19-0.12-0.56-0.16-0.75c3.67-7.45,7.74-14.76,12.61-21.51
		c3.75,1.33,7.01,3.61,10.28,5.84c-2.09,5.67-5.72,10.6-8.52,15.93c-1.09,1.84-2.31,3.6-3.54,5.35
		C273.82,436.38,270.14,435,266.49,433.59z M271.58,446.98c0.17,3.46-3.1,6.74-6.64,5.85c-5.23-0.71-7-8.56-2.68-11.53
		C266.11,438.64,271.8,442.56,271.58,446.98z M276.04,400.85c-2.05-1.19-3.62-3.02-5.22-4.73c-4.73-5.14-9.33-10.4-13.54-15.97
		c-0.82-1.15-1.62-2.31-2.4-3.47c7-2.96,14.56-4.16,21.9-5.96c4.88-1.06,9.72-2.61,14.77-2.42c0.34,2.84,0.44,6.24,3.2401,7.87
		c5.09,3.56,10.24,7.39,16.22,9.3c2.81,1.11,4.52-1.69,5.85-3.62c-6.41-6.48-15.89-9-22.0099-15.79c1.5-0.45,3.1-1.04,4.67-0.46
		c6.41,1.94,11.43,6.8,17.71,9.01c2.6,1,4.31-1.78,5.6299-3.52c-6.25-5.41-14.22-8.47-20.1-14.28c0.32-0.54,0.98-1.61,1.31-2.15
		c3.64-0.19,5.99,2.76,8.93,4.32c2.37,1.29,4.63,2.77,7.03,4.01c3.04,1.52,6.87,0.53,9.14-1.89c-5.85-6.64-15.32-8.47-21.1-15.15
		c0.73-0.32,2.19-0.97,2.92-1.3c6.92,2.62,13.2401,6.7,18.9301,11.4c3.41,3,8.25,0.82,12.3,1.12c0.15,0.16,0.45,0.47,0.6,0.62
		c-3.37,7.67-7.74,14.84-11.84,22.12c-7.5,12.04-14.04,24.63-21.1201,36.9c-0.9399,1.51-2.0099,2.94-3.06,4.38
		C297.66,412.91,287.02,406.42,276.04,400.85z M325.16,338.77c3.22,2.06,6.55,4.06,9.28,6.77c1.18,0.76,0.01,2.95-1.35,2.32
		c-3.15-1.26-5.64-3.79-8.71-5.25c-3.28-2.16-7.66-3.55-9.41-7.33C318.81,334.47,322.02,337.01,325.16,338.77z M321.27,326.05
		c0.94-3.04,4.53-0.4,6.33,0.45c4.56,3.05,10.59,5.43,12.74,10.84c-3.38,0.45-6.22-2.17-9.08-3.61
		C327.89,331.28,323.72,329.46,321.27,326.05z M314.31,443.22c3.56,0.11,6.39,2.57,9.28,4.34c-2.48,2.17-5.9,2.54-9.03,2.97
		C313.95,448.13,314.09,445.66,314.31,443.22z M320.89,428.31c1.86-6.63,5.78-12.39,8.98-18.42c5.66-9.54,11.1-19.2,16.58-28.84
		c3.18-5.6,6.31-11.29,10.59-16.14c3.63,3.17,6.54,7.02,9.35,10.91c2.72,3.96,5.54,7.92,7.45,12.35c1.29,2.61,0.17,5.5-0.73,8.04
		c-4.81,12.14-11.56,23.59-20.55,33.11c-4.1,3.52-8.16,10.22-14.44,7.99C332.09,434.95,326.14,432.15,320.89,428.31z M328.68,315.97
		l-0.14-1.38c6.48,0.69,12.25,4.91,16.69,9.46c0.03,0.62,0.09,1.86,0.11,2.49C339.27,324.07,333.1,320.89,328.68,315.97z
		 M133.29,410.22c-9.15,3.46-18.27,7.04-27.3799,10.61c-1.45,0.63-3.03,0.72-4.58,0.65c0.38-6.6,2.06-13.01,3.54-19.43
		c3.12-12.08,6.78-24.09,12.66-35.16c5.58-11.46,12.83-22.01,20.81-31.9301c1.68-1.84,3.1-4.28,5.53-5.13
		c2.59,0.42,5.25,2.1,7.85,0.77c8.37-3.81,13.91-11.87,22.24-15.76c5.47,5.26,9.74,11.58,14.59,17.39c1.73,2.12,3.17,4.45,4.58,6.8
		c-3.42,4.61-8.43,7.62-12.41,11.68c-7.37,7.26-14.66,14.82-20.13,23.66c-4.11,6.49-7.75,13.29-11.02,20.25
		c-2.02,4.24-2.89,9.4-7.09,12.18C139.64,408.47,136.36,409.09,133.29,410.22z M375.41,504.39c-1.78,4.2-4.63,7.8-6.67,11.86
		c-0.73,1.41-1.48,2.84-2.4,4.15c-9.29,12.35-20.21,23.55-32.93,32.39c-7.75,5.7-16.36,10.26-25.48,13.34
		c-7.7,2.42-15.38,5.23-23.48,5.96c-8.47,0.69-16.98,0.62-25.46,0.6c-8.78-0.01-17.63-0.89-25.98-3.75
		c-12.03-3.05-23.13-8.84-33.58-15.4c-9.18-4.8-16.33-12.49-23.59-19.7c-10.1-10.53-17.63-23.28-23.53-36.5601
		c-4.93-10.99-7.8-22.8-9.2-34.74c-0.63-12.45-0.52-24.96,0.68-37.37c0.84-4.99,1.9-9.96,3.6-14.74c1.5-2.98,4.61-4.36,7.68-5.13
		c7.77-2.08,15.24-5.05,22.95-7.32c19.25-5.79,38.42-11.85,57.89-16.89c5.52-1.07,7.77,4.6,10.69,8.01
		c2.86,3.51,5.8799,6.92,8.16,10.86c-5.99,2.85-12.38,5.09-17.64,9.2401c-7.34,5.65-12.56,13.58-16.43,21.89
		c-2.8,6.25-2.48,13.26-2.49,19.95c0.08,7.66,1.93,15.4,6.14,21.86c7.35,11.12,18.97,19.69,32.15,22.28
		c12.1,2.36,25.33-0.11,35.37-7.37c5.6-4.61,11.25-9.54,14.8-15.97c3.16-4.79,3.75-11.99,9.61-14.44
		c5.97-2.48,12.45-3.28,18.71-4.75c11.81,6.06,23.74,11.85,35.69,17.63c4.8799,2.46,9.97,4.59,14.45,7.77
		C383.53,487.33,379.31,495.9,375.41,504.39z M388.76,452.02c-0.13,2.85-0.05,5.8701-1.37,8.4901c-1.5,0.9-3.29-0.6801-4.77-1.09
		c-10.47-5.14-21.39-9.54-31.23-15.85c-1.79-0.82-0.21-2.65,0.53-3.59c4.8199-5.6,10.28-10.67,14.65-16.66
		c5.27-6.72,8.82-14.53,13.55-21.59c2.74,5.13,3.86,10.9,5.35,16.48C387.72,429.32,389.0701,440.66,388.76,452.02z M425.74,498.99
		c-1.1599,5.62-4.05,10.72-6,16.1c-1.4199,3.49-3.0699,6.8799-4.87,10.19c-1.58-1.3-3.2799-2.95-2.36-5.2
		c2.8-7.61,5.3201-15.4,9.02-22.6201C422.48,494.92,426.3501,496.58,425.74,498.99z M431.7,473.63c-0.4299,2.45-0.74,4.98-1.76,7.27
		c-0.6199,1.36-2.33,0.58-3.4399,0.68c0.01-2.46,0.05-4.91,0.3301-7.35c2.3799-19.74,2.3799-40.02-1.75-59.52
		c-1.1301-6.14-2.8-12.14-4.4501-18.14c-2.12-8.67-6.58-16.48-10.42-24.46c-2.76-5.47-5.6699-10.87-8.8899-16.09
		c-1.4-2.18-2.6401-4.46-3.4501-6.92c1.5699-0.12,3.4601-0.9,4.7301,0.51c2.5599,2.46,4.0499,5.77,5.9299,8.74
		c4.1,7,7.74,14.28,11.0701,21.68c3.5099,6.95,5.5898,14.49,7.5898,21.99c2.02,7.9301,4.05,15.91,4.9701,24.07
		C433.15,441.91,433.21,457.85,431.7,473.63z M506.49,338.69c-5.45-9.49-12.4399-17.99-19.25-26.52
		c-10.75-13.42-23.8-25.11-32.33-40.19c-4.9501-7.53-8.24-16.03-13.38-23.44c-8.38-0.37-15.9299-4.7-22.42-9.68
		c-3.11-3.48-5.7799-8.29-10.99-8.69c-4.45-1.14-6.33,3.69-8.3099,6.63c-3.47,6.24-7.79,12.27-9.5801,19.25
		c0.3,6.8,2.73,13.31,4.0801,19.95c0.98,4.31,1.5499,8.72,2.95,12.93c1.64,4.86,0.73,10.29,2.8401,15.01
		c2.45,3.97,5.96,7.14,8.97,10.68c5.8899,6.93,11.53,14.07,16.6399,21.6c1.17,1.63,1.9601,3.51,2.3401,5.49
		c-7.77,1.64-15.78,1.86-23.7,2.21c-5.7301-6.65-11.4401-13.37-17.8301-19.41c-1.62-1.41-3.27-3.03-5.45-3.45
		c-2.72,1.7-4.62,4.76-4.96,7.94c2.6,5.34,6.97,9.56,9.9901,14.66c-10.6601,3.53-21.8601,5.77-33.0901,6.16
		c1.74-4.34,3.79-8.55,6.25-12.53c5.09-8.02,9.18-16.65,12.64-25.49c-2.25-2.57-4.77-5.16-8.06-6.34c-2.34-0.84-4.3,1.17-5.56,2.88
		c-2.54,3.5-4.62,7.31-7.27,10.74c-4.5-2.42-8.73-5.3-12.89-8.2599c-2.15-1.54-4.19-3.21-6.22-4.87c2.12-4.98,5.29-9.38,7.95-14.05
		c5.56-9.69,11.1-19.39,16.72-29.04c3.69-6.25,7.25-12.58,10.88-18.86c3.45-5.82,6.84-12.02,7.36-18.89
		c0.47-5.18-1.48-10.09-2.43-15.09c-1.2-6.15-2.4-12.3-4.08-18.34c-10.65-0.17-21.33,0.07-31.92-1.21
		c-2.37-0.59-5.27-0.93-6.59-3.27c-4.17-6.79-5.83-14.71-7.57-22.38c-1.16-4.75-0.75-9.94-3.27-14.29
		c-1.21,0.86-2.51,1.78-2.36,3.46c-1,11.78,1.3,23.65,5.17,34.76c-4,0.26-8.04-0.16-11.73-1.78c-1.93-0.92-4.45-1.46-5.42-3.57
		c-5.5-12.95-8.84-26.79-9.5-40.87c0.19-6.56-0.2599-13.18,0.86-19.68c1.65-10.2,6.31-19.63,11.91-28.21
		c3.18-4.3199,6.95-8.9801,12.56-9.9401c9.19-1.5,18.45,0.49,27.64,0.8801c-1.4-2.8401-5.89-0.9401-7.4-3.4901
		c-0.2599-3.1899,0.75-7.63,4.29-8.5299c8.52,0.1099,17.41,3.95,21.95,11.45c-0.16,0.85-0.3,1.7-0.45,2.55
		c9.3,4.5,19.43,6.8599,28.84,11.0499c6.74,3.45,14.29,6.33,18.99,12.6c-5.39,2.22-11.8701,0.77-16.75,4.37
		c-1.3101,0.8-1.41,2.47-1.95,3.75c5.3398,0.4,10.7-0.57,16.0099,0.21c6.26,1.26,11.7301,4.71,17.29,7.67
		c6.51,2.83,11.88,7.59,18.3099,10.56c1.8301,1.19,4.4401,1.94,5.3201,4.08c-1.51,5.22-5.1899,9.47-6.9299,14.6
		c-0.9202,3.54,0.3799,7.17,1.3899,10.55c0.65,1.49,1,3.75,3,3.89c3.01-1.54,4.8-4.59,6.5601-7.35c3.26-5.69,6.3-11.52,10.02-16.93
		c1.49-2.7,4.8999-1.81,7.4299-1.94c5.1001,0.27,10.28,0.08,15.3101,1.02c1.76,0.26,1.61,3.05,0.26,3.84
		c-2.66,2.02-6.8301,1.23-8.8801,4.2c-3.8899,4.81-10,7.24-13.47,12.44c-3.71,5.52-7.1199,11.45-8.49,18.03
		c-3.33,15.11-3.1799,31,0.76,45.97c1.01,6.78,4.14,12.84,6.71,19.1c-4.48,0.33-8.83-0.82-13.2-1.54
		c-2.38-0.63-4.33,2.09-3.4299,4.26c1.3099,5.01,4.34,9.32,6.8599,13.78C467.75,283.91,481.52,300.39,495.61,316.43
		c3.92,4.78,8.08,9.43,11.0699,14.87c0.4701,0.97,1.25,1.59,2.3201,1.85c-1.88-8.03-6.22-15.15-9.61-22.59
		c-6.41-13.48-14.11-26.41-19.17-40.48c5.55,2.4301,11.15,4.75,16.8,6.9301c4.1799,2.19,5.6,7.18,7.9199,10.99
		c7.8201,15.59,15.91,31.06,23.28,46.87c0.63,1.57,1.21,3.16,1.74,4.78C522.13,339.93,514.27,339.63,506.49,338.69z M537.05,404.26
		c-2.7001-5.9901-3.98-12.46-6.1201-18.64c-0.1099-0.72-0.33-2.16-0.4399-2.88c1.6001,2.33,2.97,4.81,4.1699,7.37
		c1.6501,3.6,3.7401,7.06,4.6602,10.95C539.5601,402.57,537.78,403.21,537.05,404.26z M630.8201,296.99
		c-0.8701-1.58-2.51-2.96-2.5601-4.84c1.3999-4.17,6.78-6.19,10.6799-4.21c3.27,1.27,4.8401,4.56,7.05,7.04
		c2.64,1.78,5.7,2.9,8.3,4.8c-3.8101-0.03-7.6101-0.19-11.41-0.35c-1.1801,3.77-2.65,7.46-4.77,10.81
		c4.8199,3.34,10.74,4.66,15.4301,8.23c6.54,4.76,13.48,11.13,13.48,19.9c-0.55,1.54-0.52,3.59-2.14,4.48
		c-7.66,4.58-16.59,6.03-24.92,8.91c-13.6399,1.5099-27.11,4.85-40.8799,5.1c-1.25-6.19-2.6301-12.65-1.2001-18.94
		c0.5499-3.27,3.39-5.26,5.35-7.69c-2.6399-0.03-5.3201,0.9-6.6799,3.3c-4.47,6.83-3.8701,15.41-5.28,23.16
		c-0.97-0.16-2.78,0.53-2.9-0.93c-1.02-4.1801-0.49-8.53-0.34-12.77c0.27-3.57,0.1699-7.25,1.3199-10.68
		c1.38-3.8,5.27-5.86,6.92-9.5c-5.16,2.44-11.15,6-12.02,12.19c-0.9,6.3-0.5801,12.7-1,19.04c-0.03,1.45-0.72,2.75-1.23,4.08
		c-2.39-4.64-1.6799-10.04-1.95-15.07c0.25-5.93-0.48-12.27,2.33-17.74c1.12-2.23,2.66-4.21,3.85-6.4
		c-5.4,1.22-8.5701,6.95-9.3101,12.07c-0.8999,9.02-0.48,18.13-1.4299,27.15c-1.3301-0.56-3.38-0.62-3.21-2.56
		c-0.3501-9.85,0.04-19.77,1.04-29.58c0.2899-6.19,6.2799-9.42,9.25-14.23c-7.55,3.38-13.1802,10.89-14.2001,19.14
		c-1.2201,8.77-0.84,17.67-0.9601,26.5c-2.7,0.5-5.5499,0.65-7.99,1.9901c0,0.31-0.01,0.93-0.01,1.24
		c2.7201,1.07,5.78,1.14,8.3501,2.66c-2.3401,0.59-4.7,1.21-6.64,2.7c1.33,2.87,4.64,3.19,7.34,3.88
		c-2.23,1.05-5.26,1.85-5.5701,4.77c1.2101,0.1,2.4302,0.1899,3.6602,0.27c1.1099,0.41,2.1899,0.87,3.26,1.4
		c-2.3901,0.78-5.99,1.82-5.49,5.08c1.9099,0.2599,3.8099,0.54,5.73,0.86c-1.42,0.91-2.8201,1.82-4.2101,2.75
		c-0.12,1.26-0.23,2.54-0.33,3.81c-2.02-0.19-4.72,0.73-6.0701-1.27c-0.8-0.99-1.47-2.08-2.11-3.16
		c-6.22-11.88-12.2699-23.9-17.35-36.31c-0.1599-0.83-0.48-2.4901-0.64-3.32c5.0599-0.86,10.2001-0.7,15.3099-0.74
		c0.4401-5.11,0.6301-10.23,1.1301-15.34c1.29-6.37,4.01-12.64,9.1799-16.83c7.5-7.14,18.1799-8.87,28.1101-9.43
		c12.95-1.4,24.9199,4.77,37.47,6.75C628.53,305.35,630.4099,300.97,630.8201,296.99z M587.77,415.76
		c-3.0901,1.81-7.3,1.14-10.8201,1.83c-2.6799,0.55-3.35-2.58-3.99-4.45c3-1.83,6.55-2.84,10.0701-2.73
		C585.1,411.47,587.4,413.31,587.77,415.76z M558.79,439.08c-4.25-2.46-8.01-6.37-9.4401-11.15c0.7001-0.41,2.1-1.24,2.8-1.65
		C555.6799,429.72,556.77,434.73,558.79,439.08z M605.0801,518.75c-13.51-1.82-27.1501-4.51-39.55-10.37
		c-9.2-4.43-16.1101-12.76-19.88-22.14c-5.42-11.3-6.84-24.1-5.83-36.48c0.72-4.54,2.22-8.9901,4.77-12.84
		c3.1399,2.41,6.1199,5.05,9.4299,7.23c3.03,1.93,7.2,2.23,9.3201,5.44c2.6799,3.82,4.5999,8.11,6.7599,12.24
		c5.2401,10.13,9.6901,20.76,16.2201,30.17c4.5599,5.95,10.3699,10.83,16.33,15.34c2.0499,1.45,4.08,3.22,6.6801,3.52
		C610.21,513.86,609.23,519.4,605.0801,518.75z M606.77,480.23c-3.39-5.55-6.3601-11.34-9.39-17.09
		c-2.63-5.78-5.98-11.29-7.88-17.3701c-1.11-3.04,3.3-4.15,5.54-4.33c2.75-0.52,2.86,2.68,3.05,4.55
		c0.5599,7.47,2.7599,14.81,6.4399,21.34c4.34,7.77,9.97,14.7,16.3,20.92c-0.25,0.46-0.75,1.37-1.01,1.83
		C614.35,488.79,609.63,485.02,606.77,480.23z M633.8101,525.9c-3.78,1.27-7.8901,1.31-11.8201,0.96
		c-1.6599-0.22-3.9099-0.27-4.46-2.23c-0.9399-3.48-0.4399-7.85,2.9099-9.88c3.76,0.2,7.6401-0.46,11.3101,0.62
		c2.02,0.62,2.95,2.74,4.1699,4.29C635.73,521.8,636.27,524.83,633.8101,525.9z M704.13,535.14c-2.87,4.18-8.4701,4.56-13.0699,4.3
		c-6.0701-0.14-9.1301-6.34-11.28-11.15c-1.65-3.13-1.02-6.71,0.48-9.75c2.35-3.98,5.9199-7.75,10.8301-8.1
		c6.4399-0.95,11.4199,4.11,15.46,8.37C709.4399,524.03,707.38,530.58,704.13,535.14z M651.15,501.68
		c0.14-0.46,0.41-1.38,0.5499-1.84c21.6001-0.07,43.26-0.51,64.8701,0.3c0.71,0.1899,2.1099,0.59,2.8099,0.78
		c-5.5699,1.99-11.4401,2.87-17.27,3.68C685.14,506.66,667.64,506.69,651.15,501.68z M729.23,517c-1.55,1.73-3.6799,3.74-6.22,2.99
		c-2.61-0.49-4.21-2.78-5.16-5.06c0.4501-1.74,0.38-3.86,1.9401-5.07c2.11-2.12,6.01-1.87,7.8899,0.44
		C729.3401,512.1,729.45,514.69,729.23,517z M773.9199,497.76c-5.98,0.59-11.9099,1.54-17.8799,2.05
		c-1.6201,0.26-3.17-0.29-4.67-0.76c2.52-2.83,6.09-4.31,9.0699-6.56c3.9001-2.59,7.8801-5.67,12.74-5.97
		C773.9199,490.22,774.05,494,773.9199,497.76z M784.38,464.47c-11.2201,11.15-24.25,20.59-38.49,27.49
		c-2.9601,1.98-5.4801-1.1-8.2001-2c-1.28,3.23-3.52,7.4-7.6799,6.69c-4.53-0.08-6.24-6.48-11-5.23
		c-22.3301,1.62-44.77,0.45-67.1001,2.16c-4.48,0.3-8.8899,1.6201-12.5698,4.23c-2.0701,1.35-4.6702,2.14-6.1101,4.27
		c-1.26,1.44-2.0701,3.7401-4.26,3.91c-1.73,0.33-3.4199-0.31-5.09-0.61c1.0499-3.36,2.5-6.58,4.25-9.63
		c3.27-5.18,9.09-7.56,13.85-11.04c-2.54-2.7-6.37-0.74-9.46-0.4c-3.22,0.45-7.48,2.28-9.9299-0.83
		c-4.3201-5.62-7.3101-12.26-8.78-19.2c-2.6001-14.24-0.0801-30.74,11.45-40.58c7.8999-6.9901,17.97-10.76,27.97-13.6201
		c16.95-5.1299,35.16-4.9399,52.4-1.41c7.22,1.43,14.5,2.81,21.42,5.38c2.0699,0.7,3.85,2.02,5.49,3.46
		c-0.47,7.23-1.96,14.34-3.4401,21.42c-0.7599,4.04-2.1,8.11-5.24,10.94c-4.0299,3.77-6.0599,9.87-3.98,15.14
		c2.42,5.5,9.5699,7.42,14.87,5.18c-1.8301-2.78-4.24-5.2-5.6799-8.22c-1.3301-3.6,1.3199-6.83,3.21-9.63
		c6.04-8.13,6.22-18.65,8.4399-28.15c2.9-13.53,5.25-27.17,7.39-40.83c0.7001-3.56-0.96-7.77-4.66-8.85
		c-12.23-4.02-25.51-3.9301-37.5699-8.56c3.36-1.15,7.5399-1.32,9.6901-4.58c0.3799-2.57,0.4399-5.2,1.1399-7.72
		c2.64-2.39,7.04-1.59,10.16-0.57c3.4,3.65,4.42,8.83,7.15,12.94c1.6799,3.1801,5.99,2.07,8.9299,2.08
		c5.75,0.06,11.6101-5.35,17.01-1.21c1.3501,1.41,3.1101,2.96,2.8301,5.14c-0.1001,5.7-5.16,9.55-6.3801,14.89
		c-1.7799,7.21-3.0199,14.54-4.5898,21.79c-0.55,3.06-1.79,6.19-1.0801,9.32c1.21,2.39,3.3401,4.13,5.38,5.8
		c12.52,9.58,24.53,19.9901,34.84,31.94C789.71,459.27,786.78,461.76,784.38,464.47z M769.4399,355.31
		c0.73,3.48,2.1101,6.76,4.1101,9.72c1.6699,1.91,1.1699,5.19-1.5701,5.6c-2.45-0.75-3.51-3.41-4.62-5.48
		c-1.4-3.57-2.9501-7.19-3.26-11.06C765.23,352.34,769.1699,352.88,769.4399,355.31z M768.5801,332.73
		c1.1599-1.65,2.95-1.57,4.7-0.95c-0.05,0.71-0.15,2.14-0.21,2.85c-1.26,3.69-2.51,7.47-4.6801,10.73c-0.79,1.31-2.5,1.35-3.75,1.89
		C764.1,342.08,766.64,337.34,768.5801,332.73z M783.62,330.68c5.75-5.29,13.3099-7.91,19.4-12.74c4.49,1.85,8.98,3.88,12.73,7.03
		c-0.87,1.8-1.8101,3.56-2.77,5.31c2.25,2.71,5.8101,2.2,8.95,2.56c1.6401,1.84,2.55,4.19,3.4601,6.46
		c0.5299,1.83,0.74,3.74,0.91,5.64c-2.6901,1.43-5.3801,3.16-6.6901,6.03c2.13,1.09,4.35,2.01,6.4301,3.21
		c0.8199,3.49-0.5901,7-1.64,10.29c-0.88,1.46-1.59,3.35-3.39,3.88c-1.9399,0.04-3.51-1.24-5.12-2.08
		c-5.54,2.04-10.7999,5.33-16.9,5.31c-6.6799,0.26-14.88-1.5699-17.84-8.3c-1.8-2-4.2101-3.69-4.9601-6.41
		c-1.5599-5.53-0.5399-11.36,0.4001-16.9C778.0601,336.31,780.76,333.32,783.62,330.68z M782.89,319.83
		c2.97-1.09,6.39-2.5,9.5199-1.22c0.9202,0.92,0.4401,2.58-0.3599,3.44c-4.1001,2.17-8.7001,3.51-13.3701,3.44
		C777.3301,322.53,780.6,320.74,782.89,319.83z M929.8301,438.5c-0.52,4.95-0.05,10.06-1.4701,14.88
		c-0.64,2.39-3.5499,2.42-5.47,3.02c-10.88,2.12-21.9601,2.84-32.9801,3.92c-13.95,1.24-27.8499,2.9-41.8198,3.96
		c-6.2201,0.5-12.8901,1.27-18.6602-1.68c-4.5399-2.24-6.8999-7.1-8.1799-11.76c-3.21-12.87-3.14-26.3-2.3101-39.46
		c1.5801-14.95,3.4501-30.21,9.3301-44.18c2.8-6.4301,5.45-13.33,10.8899-18.04c2.51-2.06,5.52,0.54,7.8701,1.64
		c14.46,9.02,28.55,18.61,42.71,28.08c6.6799,4.43,13.23,9.03,19.9299,13.42c7.03,4.8,15.1801,9.13,18.9401,17.21
		C930.3401,419.07,929.76,428.84,929.8301,438.5z M793.5,377.76c-0.4099,1.73,0.0701,5.17-2.5601,5.0699
		c-5.2-0.33-10.0999-3.17-13.7999-6.71c0.85-1.9,2.61-3.31,4.76-2.52C785.77,374.96,789.71,376.17,793.5,377.76z M787.3201,436.62
		c-0.9001-2.3,1.0898-4.37,3.1299-5.06c1.67-0.52,3.97-0.75,5.25,0.73c2.15,2.48,1.47,7.56-2.1499,8.28
		C790.73,441.73,788.55,438.73,787.3201,436.62z M795.9399,491.14c-3.6399-1.1201-3.84-6.89-0.5499-8.51
		c2.22-0.89,5.1801-0.7,6.74,1.34C804.97,487.58,800.01,493.87,795.9399,491.14z M800.1699,382.76c-1.45-1.56-1.4199-4.92,0.79-5.88
		c2.6001-1.53,5.5-2.47,8.3501-3.42c1.84-0.44,3.8799-1.3,5.75-0.5099c2.0399,1.66-0.05,4.3199-1.7101,5.35
		C809.4299,380.74,804.89,382.98,800.1699,382.76z M858.99,521.53c-12.86,0.17-25.79-0.1801-38.5601,1.67
		c-2.3699,0.3-4.77,0.39-7.1499,0.34c3.0601-1.72,6.7-1.57,10.02-2.5c13.4399-3.63,26.7999-7.63,40.6499-9.46
		c17.22-2.8199,34.71-2.02,52.0701-2.7599c21.3101-0.16,42.62-0.72,63.9199-1.06c17.1801-0.09,34.7101-1.69,51.51,2.78
		c13.12,3.72,27.0601,7.22,37.29,16.84c-0.35,2.34-2.66,3.58-4.17,5.14c-8.5699,7.88-19.85,14.03-31.7899,13.28
		c0.49-1.41,1.86-1.64,3.1799-1.74c6.76-0.74,13.02-3.75,18.8401-7.12c3.73-2.28,7.6499-4.87,9.6899-8.89
		c0.3101-1.65-1.71-2.14-2.86-2.54c-12.0601-2.22-24.35-2.24-36.5601-2.72C969.71,521.96,914.35,521.31,858.99,521.53z
		 M963.4399,461.55c4.91-0.03,9.8401-0.18,14.75,0.21c1.4401,0.3199,3.78,0.06,4,2.05c0.8201,3.8,0.3201,7.74,0.6801,11.59
		c0.2101,5.25,0.37,10.5,0.28,15.75c-5.37-0.02-10.75,0.89-16.1,0.26c-2.6001-0.28-3.8501-3.01-3.76-5.34
		C963.0701,477.9,963.4,469.72,963.4399,461.55z M1114.5601,486.51c-5.3,18.5-15.3201,35.39-28,49.77
		c-6.3,6.84-13.15,13.24-20.88,18.43c-8.6801,5.42-17.9601,9.86-27.5,13.54c-6.89,3.02-14.3201,4.34-21.62,5.94
		c-6.0901,1.29-12.3401,1.03-18.51,1.06c-12-0.4-24.1801-0.99-35.67-4.83c-9.61-3.24-19.12-7.11-27.6901-12.58
		c-1.6899-1.2-3.3199-2.46-4.95-3.7c41.11,0.08,82.24-0.3,123.33,1.32c3.55,0.57,5.3501-3,7.0601-5.43
		c4.21-6.89,8.8099-13.83,15.42-18.67c1.76-1.58,4.73-2.61,5.35-5.03c-1.49-2.24-3.8301-3.68-5.89-5.31
		c-5.84-4.43-11.25-9.66-14.8101-16.13c-1.1799-2-2.5699-4.55-5.26-4.4301c-5.99-0.23-11.96,0.54-17.9299,0.77
		c-14.46,0.38-28.9199,0.63-43.37,0.36c-2.1-0.22-4.85,0.33-5.86-2.02c7.45-1.55,15.29-0.75,22.5601-3.26
		c6.72-2.4,12.8899-6.24,18.3099-10.85c8.51-8.09,14.33-19.35,15.14-31.13c0.1899-2.33,0.5499-4.64,0.95-6.93
		c19.61,6.76,38.35,15.72,57.64,23.34c4.3099,2.25,9.5,3.33,13.02,6.84C1116.24,480.51,1115.23,483.63,1114.5601,486.51z
		 M1000.63,445.4c1.7101,2.2401,1.1,5.19,0.64,7.7401c-2.47,3.58-7.6101,3.75-10.27,0.31c-0.96-2.55-1.54-5.73,0.4-7.97
		C993.48,442.49,998.5901,442.23,1000.63,445.4z M998.88,397.22c2.62-0.73,5.38-0.54,8.09-0.58
		c12.29,0.08,24.5801,0.0699,36.86,0.54c-3.4099,3.28-6.8199,6.54-10.2999,9.73c-1.9,1.72-3.88,3.35-5.85,4.98
		c-8.61-3.83-16.64-9.45-26.1901-10.75C999.9399,400.62,997.1899,399.11,998.88,397.22z M1162.17,474.19
		c-0.9401,5.67-1.25,11.6-3.8501,16.83c-12.21-4.36-23.98-9.89-35.7599-15.29c-0.1001-14.43,0.84-28.92-0.27-43.32
		c-1.01-10.16-4.5701-19.77-7.04-29.61c-0.45-1.69-0.87-3.38-1.3-5.06c5.63-0.85,11.3401-0.43,17.01-0.53
		c6.3401,0.11,12.7101,0,19.02,0.69c2.84-0.14,3.48,3.07,4.3201,5.13c3.22,14.44,1.9299,29.34,3.3899,43.96
		c-0.0199,3.41,2.8701,5.41,5.8101,6.31C1163.78,460.29,1162.92,467.25,1162.17,474.19z M1188.75,452.73
		c-5.9301-3.1-12.8101-5.16-17.6899-9.78c-2.29-13.44-2.1801-27.2401-4.9401-40.65c-0.9399-4.97-1.72-10.05-3.89-14.67
		c-14.0599-1.22-28.1799-0.84-42.27-0.97c-31-0.2-62-0.29-92.99-0.39c-9.52-0.3-19.09,0.52-28.5699-0.52
		c-0.4701-2.83-0.5-6.25-3.04-8.11c-2.71-2.3-6.9401-1.91-9.25,0.7599c-1.4401,3.34-0.8099,7.06-0.9301,10.59
		c-0.0898,7.34,0.1801,14.7-0.0999,22.05c-0.04,4.47-2.4701,8.5-2.4001,12.98c-0.2,5.82-0.21,11.65-0.1699,17.48
		c-6.3401,0.01-12.6899,0.01-19.02-0.01c0.05-8.12-1.25-16.5,1.23-24.39c-1.49-2.17-4.86-3.06-4.98-6.13
		c-0.88-5.61-0.47-11.31-0.55-16.96c0.1301-3.9901-0.24-8.04,0.6301-11.96c1.9399-3.07,7.1899-1.9,8.45-5.68
		c-4.49-0.91-9.17-0.75-13.6001,0.37c-2.96,0.57-2.2,4.09-2.4099,6.28c0.3301,16.21,0.3301,32.44,0.6499,48.64
		c0.6501,14.78,0.1602,29.58,0.29,44.37c-0.1699,5.91,0.4,11.87-0.46,17.76c-2.37,0.24-4.84,0.52-7.09-0.43
		c-4.9901-1.97-10.75-2.49-15.87-0.79c-4.5701,1.53-2.23,9.5099-7.8201,9.39c-12.3199,1-24.77,0.47-37.0699-0.62
		c-14.3099-3.18-28.65,1.29-42.9,2.54c-2.27,0.07-4.9399,0.61-6.87-0.91c-1.15-1.48-1.51-3.37-1.98-5.13
		c-0.1801-0.79-0.5499-2.37-0.7301-3.16c3.1602-2.01,6.9901-2.22,10.6201-2.64c15.3199-1.45,30.6-3.31,45.8199-5.56
		c10.12-1.53,20.41-1.88,30.39-4.24c2.5901-0.79,5.62-1.41,7.3201-3.73c2.51-4.39,0.1899-10.37,3.6499-14.33
		c2.9301-1.7,7.27-1.24,9.1801-4.56c1.09-2.78,0.9401-5.86,1.08-8.79c0.0901-11.1,0.23-22.1899-0.1399-33.28
		c-0.01-4.33-0.3901-8.66-1.1901-12.9c-1.5699-5.21-6.51-8.09-10.49-11.32c-9.59-6.92-19.37-13.59-29-20.46
		c-5.9801-4.69-12.67-8.32-18.85-12.71c-13.55-8.24-26.41-17.55-39.5901-26.37c-15.6499-10.79-31.4199-21.4-47.08-32.17
		c-10.13-7.12-20.67-13.68-30.37-21.41c-3.1699-2.22-6.99-3.41-9.8201-6.13c-6.1599-5.6899-15-6.2599-22.9399-6.85
		c-2.8101-0.48-5.1899,1.06-7.26,2.72c3.3501,3.79,8.3101,5.3199,12.63,7.67c18.0599,9.18,36.39,17.82,54.25,27.36
		c2.1801,1.54,4.9601,3.62,4.14,6.7c-3.9299,2.76-9.13,3.22-13.8,3.59c-6.4299-2.1-12.27-5.74-18.49-8.39
		c-13.83-6.56-27.55-13.35-41.23-20.2c-2.8301-1.22-3.46-4.51-5.04-6.84c-1.6799-2.98-5.02-4.41-7.03-7.08
		c-0.3499-3.14,2.0601-5.71,2.6201-8.7c1.0599-5.05,1.49-10.95-2.02-15.19c-1.89,3.31-2.37,7.24-4.48,10.44
		c-2.46,3.87-6.28,6.79-10.5801,8.37c-2.52,1.1-5.3899,1.62-7.58,3.36c-1.3199,2.54-2.37,5.26-2.98,8.06
		c0.0199,3,2.14,5.37,3.5699,7.84c-3.02,4.09-3.1599,9.44-1.6899,14.15c1.12,2.77-0.0901,5.59-0.8301,8.29
		c-2.8799,8.87,0.8801,19.81,9.4301,24.04c3.08,1.75,7.1801,0.74,9.84,3.3c-2.5,2.35-7.3101,2.36-8.05,6.31
		c-1.1199,3.97,1.9701,7.48,5.5601,8.63c-0.38,1.07-0.74,2.14-1.13,3.21c-1.6801,3.81-2.7899,8.74,0.01,12.31
		c1.67,2.23,2.4401,5.52,5.37,6.47c7.89,3.02,16.65,2.7,24.5801,5.6c1.22,0.29,2.1399,1.49,1.8099,2.78
		c-0.5299,4.51-1.98,8.86-3.4301,13.14c-0.9199,2.7-2.8499,5.85-6.1199,5.67c-2.3901,0-5.4601,0.4-7.0701-1.8
		c-1.89-3.68,0.04-8.83-3.29-11.83c-2.5599-1.55-5.8899-0.99-8.6399-0.25c-3.2201,0.85-2.6602,4.7401-4.01,7.08
		c-1.55,2.25-3.3501,4.32-4.77,6.66c-4.6201,0.98-9.24-1.38-11.72-5.26c-2.23-3.07-0.9401-7.66-3.75-10.35
		c-2.26-1.79-5.0901-0.61-7.02,1.03c-2.71-0.8-5.03-2.74-5.71-5.55c0.2-5.03-1.4801-11.11,2.3799-15.16
		c1.3601-1.61,1.74-3.73,2.27-5.71c1.48,1.89,2.64,4.74,5.37,5.04c1.9301,0.2,4.08,0.31,5.86-0.65c2.53-1.66,3.3301-5.15,2.63-7.96
		c-0.89-1.81-2.0699-3.48-2.62-5.44c3.9299-0.94,6.3401-4.69,5.88-8.66c0.4501-3.06-1.61-5.41-3.35-7.62
		c-3.8201-6.37-10.91-9.67-14.95-15.86c-4.5901-6.48-9.3-12.89-15.0701-18.38c5.4199,1.55,8.3,6.72,11.64,10.81
		c3.2101,3.98,6.09,8.45,10.4,11.37c1.1299,0.96,3.35,0.18,3.24-1.41c0.26-5.07-0.26-10.38-2.8301-14.86
		c-2.1499-3.39,2.25-6.48,1.6101-10.02c-0.8601-4.03-2.6201-7.87-2.5901-12.07c-0.04-4.7-1.86-9.07-4.01-13.16
		c-20.6699-0.14-41.33,0.53-62.01,0.47c-13.33-0.11-26.6099,1.5-39.9399,1.44c-21.65,0.05-43.3,0.3-64.9399-0.4
		c-6.5601,0.02-12.5801-3.12-17.55-7.18c-4.65-4.36-8.76-9.38-11.63-15.1c-3.58-7.03-5.38-14.8-6.76-22.51
		c-1.87-13.08-5.1-26.42-2.3099-39.62c0.72-3.62,1.46-7.26,2.5699-10.79c2.5499-7.97,8.98-14.58,16.73-17.56
		c11.9601-0.55,23.9801-0.46,35.9301-1.35c2.6199-0.5,6.6299-0.2,7.6499-3.34c1.02-2.02,1.0601-4.75,2.8-6.3
		c4.55-1.8199,9.64-1.0699,14.4299-1.03c6.2101,0.01,11.8201,2.85,17.51,4.97c1.98,0.84,4.1201,1.66,5.5701,3.34
		c1.78,3.02,0.04,7.72,3.35,9.88c3.0599,2.01,6.7101,2.8,10.14,3.95c8.72,2.82,17.52,5.48,25.9,9.23
		c25.49,9.83,49.7999,22.8,72.0399,38.68c2.7001,1.81,5.1001,4.64,8.55,4.86c3.73-2.32,6.0601-7.38,11.05-7.23
		c7.28,0.07,11.84,6.58,16.8899,10.87c2.3801,2.44,5.99,1.66,8.9401,0.93c0.7301-1.43,1.24-3.5,3.26-3.34
		c18.25-1.48,36.53,0.34,54.7101,1.93c9.6299,1.04,19.0499,3.3,28.49,5.39c4.3099,1.24,8.58,2.64,12.9199,3.8199
		c5.8501,1.65,11.9,0.2,17.8-0.33c7.6899-0.81,15.3799,0.47,22.97,1.62c-0.12,4.05-0.3201,8.11-0.5801,12.15
		c-12.1599-0.06-24.3499-0.46-36.48,0.54c-5.97,0.41-11.83,2.2-17.85,1.82c-2.49-0.14-3.7699-2.9901-6.08-3.42
		c-4.22,0.65-8.24,2.2-12.4,3.14c-17.22,4.71-35.7101,4.68-52.88-0.23c-10.6899-2.86-20.73-7.58-30.75-12.17
		c-2.28-1.1201-4.78-1.67-7.28-1.96c2.4401,4.86,7.47,7.6,11.98,10.26c8.8601,4.43,17.6201,9.35,27.3,11.77
		c13.9399,5.68,29.41,5.16,44.1001,3.51c3.74-0.41,7.23-1.93,10.9199-2.56c2.78-0.69,5.29,1.16,7.98,1.54
		c2.36,0,4.62-0.85,6.8401-1.6c7.6699-2.91,15.99-4.91,24.23-3.82c-0.28,3.1-2.75,5.2-4.97,7.07
		c-4.2401,3.36-8.79,6.38-13.7401,8.59c-6.83,2.41-14.08,3.7-21.3199,3.8199c-6.16,0.13-12.26-2.28-18.4-0.96
		c1.61,1.66,3.27,3.29,5.14,4.67c10.48,7.58,21.23,14.77,31.8899,22.08c7.01,4.62,13.6702,9.89,21.3401,13.4
		c14.11-13.42,26.85-28.41,42.79-39.8c8.8-6.5,18.08-12.37,27.85-17.31c4.49-2.48,9.26-4.58,13.35-7.73
		c1.61-1.07,1.21-3.22,1.39-4.88c-0.0499-5.42-0.52-10.91-2.1801-16.1c-0.4099-1.3-0.8799-2.58-1.3199-3.87
		c5.4401-2.08,11.38-1.62,17.1-1.91c37-0.45,74-0.09,111,0.1c4.91,0.29,9.9501-0.14,14.78,0.98c1.21,2.78,0.98,5.91,1.28,8.87
		c0.3999,4.94-0.2001,9.91,0.36,14.83c0.15,1.47,1.65,2.16,2.73,2.94c4.25,2.5099,8.6899,4.71,13.1801,6.77
		c8.84,3.61,16.5499,9.36,24.49,14.56c8.3199,5.46,15.7999,12.07,23.01,18.92c5.21,4.78,10.1,9.91,14.8999,15.1
		c2.14,2.23,3.54,5.11,5.9,7.12c3.9301,2.42,8.6,3.07,13.02,4.15c6.22,1.35,12.27,3.49,18,6.28c3.6899,1.82,7.27,3.89,10.84,5.97
		c0.1,6.36,0.6,12.75-0.02,19.1c-0.25,3.09-2.4399,5.52-5.0699,6.92c-2.85,1.46-5.54,3.19-8.01,5.21
		c1.04,9.67,5.5601,18.49,7.84,27.88c2.53,8.97,3.8301,18.22,5,27.44C1190.26,427.73,1190.8199,440.41,1188.75,452.73z"/>
	<path opacity="0.97" enable-background="new    " d="M444.53,119.36c5.1799,2.78,10.39,6.67,16.5701,6.29
		c6.45-1.4901,12.23-5.32,18.8799-6.1201c3.1201,0.15,6.7,3.72,9.5,1.1c0.47-2.01,0.54-4.59-1-6.14c-2.03-0.73-4.27-0.8-6.1699-1.84
		c-3.03-2.6-2.26-7.84-5.8801-9.96c-5.3099-2.33-11.3499-3.06-17.0699-2.09c-7.21,1.47-13.1,6.71-17.2,12.6
		C440.2,115.43,442.3401,118.34,444.53,119.36z"/>
	<path opacity="0.97" enable-background="new    " d="M364.46,142.65c-4.75-3.52-9.93-6.9399-12.87-12.24
		c-1.07-1.7-0.88-3.7599-0.89-5.67c2.32-0.38,5.47,0.64,7.04-1.66c0.1-2.33-1.92-3.76-3.72-4.75c-4.42,2.29-9.79,6.14-9.26,11.73
		c1.51,6.85,7.15,11.59,11.3,16.89c6.91,7.78,12.77,16.48,17.17,25.92c1.53,4.56,3.68,8.94,4.5699,13.7
		c-2.19,1.6-4.23,3.38-6.2599,5.18c1.97,9.8,2.71,19.99,6.55,29.32c3.61-3.28,5.53-7.88,7.91-12.04
		c2.9299-5.73,6.38-11.27,8.38-17.42c1.0499-6.66-1.49-13.27-4.11-19.29C384.36,160.45,375.23,150.31,364.46,142.65z"/>
	<path opacity="0.97" enable-background="new    " d="M425.74,138c-7.26-6.46-16.77-9.61-25.8101-12.68
		c-4.22-1.12-8.4199-3.41-12.8999-2.53c-1.23,0.34-3.31,0.19-3.08,2.02c7.33,3.5,15.1,6.04,22.3,9.83
		c4.63,2.19,9.1001,4.74,13.8401,6.71C422.6899,142.7,424.5801,139.9,425.74,138z"/>
	<path opacity="0.97" enable-background="new    " d="M444.24,169.69c-0.53-1.51-2.13-3.31-3.84-2.2c-2.75,1.96-4.14,5.2-5.9,7.98
		c-6.3999,11.37-12.45,22.93-18.6699,34.4c-1.2001,2.5-2.8301,5.07-2.6301,7.95c1.25,2.49,4.2101,3.51,6.79,4.01
		c2.6899,0.08,4.3401-2.34,5.54-4.4c5.3-9.1,10.4199-18.3,15.6799-27.43c1.8401-3.35,3.66-6.79,4.52-10.54
		C446.1001,176.15,445.37,172.79,444.24,169.69z"/>
	<path opacity="0.97" enable-background="new    " d="M506.38,190.5c-7.48,2.11-13.5599,9.51-12.72,17.48
		c0.85,9.34,10.23,16.08,19.2899,15.56c9.75,0.22,19.53-8.33,18.3601-18.49C530.23,193.6,516.73,186.82,506.38,190.5z"/>
	<path opacity="0.97" enable-background="new    " d="M456.37,238.31c2.42-1.56,1.15-5.08,0.64-7.38
		c-1.3201-3.42-2.5-7.65-5.9299-9.49c-0.4701,0.14-1.3901,0.44-1.8501,0.59c-2.8,3.64-6.04,8.19-5.49,12.95
		C446.98,238.13,452.03,239.21,456.37,238.31z"/>
	<path opacity="0.97" enable-background="new    " d="M660.61,221.9c-10.5499-5.59-21.15-11.37-32.61-14.89
		c-9.1699-3.1-18.37-6.23-27.9399-7.83c-9.25-1.48-18.75-4.38-28.1101-2.08c-4.6199,1.5-9.3199,5.6-8.8099,10.89
		c-0.92,9.9,6,17.84,11.2999,25.4c4.2101,5.5099,9.54,10.24,15.8301,13.23c7.74,3.68,16.29,5.17,24.72,6.33
		c14.9299,1.66,29.97,2.06,44.99,1.78c4.72-0.06,9.5601-1.49,13.1899-4.6c3.5701-3.22,4.6602-8.75,2.4301-13.04
		C673.03,230.1,666.78,225.55,660.61,221.9z M652.4099,228.72C635.86,221.26,618.27,216.5,601.01,211.01
		c-4.23-1.37-8.5-2.65-12.91-3.27c-1.22,1.22-2.46,2.39-3.7999,3.45c0.02-1.96-0.8101-4.51,1.1199-5.87
		c2.8301-1.85,6.51-0.92,9.5801-0.2c19.29,5.56,38.5701,11.63,56.62,20.55c3.4,1.74,6.86,3.56,9.5,6.4
		C657.98,231.65,655.21,230.07,652.4099,228.72z"/>
	<path opacity="0.97" enable-background="new    " d="M931.5601,246.43c7.1599-2.88,14.78-4.32,22.28-6.04
		c5.9299-1.41,12.1099-1.78,17.9099-3.7401c1.6599-0.7,4.01-2.23,2.9399-4.35c-1.5699-2.03-4.3899-1.64-6.6199-1.89
		c-13.78-0.41-27.6001-0.76-41.3601,0.21c-1.34,4.88-1.6699,10.04-1.27,15.07C926.87,247.43,929.63,246.93,931.5601,246.43z"/>
	<path opacity="0.97" enable-background="new    " d="M1020.9,236.11c10.23,3.39,20.78,5.8,31.02,9.22
		c2.84,1.17,7.5599-0.6801,6.9299-4.33c0.05-2.85,0.09-5.75-0.4399-8.56c-0.3101-1.47-2.02-1.7-3.23-1.82
		c-7.7001-0.65-15.4301-1.12-23.15-1.08c-3.3101,0.07-6.76-0.48-9.9301,0.64C1019.6899,230.91,1017.9,234.89,1020.9,236.11z"/>
	<path opacity="0.97" enable-background="new    " d="M987.52,272.07c-0.26-3.98-0.24-8.09-1.6799-11.86
		c-0.9501-2.59-4.1901-2.02-6.3401-2.0099c-12.98,1.33-25.96,3.3-38.4399,7.2C926,270.55,911.53,277.48,898.21,286.22
		c-4.26,2.36-8.25,5.17-11.76,8.55c-9.33,8.19-18.3899,16.76-26.3799,26.28c-1.55,1.95-4.0901,5.09-1.29,7.16
		c3.03,2.54,7.1399,6.15,11.3,3.9c4.23-2.68,7.71-6.37,11.48-9.64c12.5399-11.79,27.09-21.34,42.7-28.56
		c8.3-3.87,16.75-7.57,25.6899-9.71c8.6901-2.07,17.55-4.59,26.5801-3.75c0.46,7.94,0.55,16.05,1.78,23.85
		c-0.1901,4.95,0.5499,9.88,0.1499,14.83c-4.3199,1.79-8.8899,2.8-13.4199,3.84c-9.9401,2.09-19.14,6.54-28.23,10.91
		c-11.7101,5.93-22.72,13.6-31.74,23.18c-2.1201,1.82-0.05,4.14,1.6699,5.25c4.01,2.79,7.95,6.97,13.3,6.35
		c16.8199-1.15,33.6-3.09,50.4099-4.52c4.99-0.25,10.21-1.65,15.04,0.28c2.55,1.08,4.66-1.48,6.77-2.54
		c-1.0601-18.81-2.03-37.63-3.21-56.43C989.0601,294.35,988,283.19,987.52,272.07z"/>
	<path opacity="0.97" enable-background="new    " d="M1140.51,337.15c-2.25-3.35-4.1901-6.9-6.3201-10.31
		C1121,311.57,1107.04,296.43,1089.67,285.85c-10.42-6.49-21.4301-12.01-32.74-16.76c-7.05-3.07-14.5601-4.8-21.77-7.39
		c-7.5701-1.86-15.4301-2.65-23.2001-2.33c-1.5599-0.05-3.34,0.88-3.4199,2.59c-0.51,4.7401-0.8501,9.66,0.2,14.35
		c1.25,3.32,5.3201,3.33,8.26,3.82c12.0601,1.41,23.6801,5.09,35.22,8.64c5.92,3.1,12.1901,5.45,18.15,8.48
		c21.09,11.2,39.9301,26.7,54.6901,45.49c4.45,6.09,9.73,11.75,12.7,18.77c1.5599,2.94,4.01,5.33,5.38,8.4
		c1.84,5.11,9.17,6.72,13.41,3.85c0.6699-2.5-0.38-5.01-1.16-7.34C1151.73,356.06,1146.36,346.41,1140.51,337.15z"/>
	<path opacity="0.97" enable-background="new    " d="M387.53,263.51c-2.29-1.07-4.03,1.42-5.09,3.0699
		c-2.9,5.09-5.73,10.23-8.54,15.38c2.68,2.7,5,5.83,8.25,7.91c3.91,2.53,7.2999,7.11,12.59,5.9c0.05-8.77-2.58-17.2599-4.1899-25.81
		C389.9,267.7,390.02,264.64,387.53,263.51z"/>
	<path opacity="0.97" enable-background="new    " d="M723.86,285.14c1.89,1.81,4.2101-0.26,5.62-1.64
		c3.95-3.24-2.46-9.2-6.1499-6.99C719.79,278.18,720.86,283.44,723.86,285.14z"/>
	<path opacity="0.97" enable-background="new    " d="M563.22,317.15c-4.22,5.71-3.76,13.18-4.46,19.89
		c-0.0601,5.97-0.54,12.13,1.12,17.94c0.0399,1.3,2.5699,3.46,2.7899,1c0.03-5.7-1.3499-11.32-1.0798-17.03
		c-0.01-9.45,2.96-19.56,10.5499-25.7c2.46-2.32,5.8099-3.52,8.0199-6.09C573.8201,308.95,567.1899,311.61,563.22,317.15z"/>
	<path opacity="0.97" enable-background="new    " d="M606.6699,312.33c-1.6499-2.3-5.01-0.42-5.45,1.92
		C603.02,315.02,606.96,315.07,606.6699,312.33z"/>
	<path opacity="0.97" enable-background="new    " d="M639.64,319.65c1.17-1.99-1.3099-4.23-3.2301-3.13
		C633.23,317.97,637.71,320.75,639.64,319.65z"/>
	<path opacity="0.97" enable-background="new    " d="M1087.02,360.03c-18.66-19.48-43.17-33.94-70.02-38.14
		c-2.6599-0.38-5.8201-0.84-8,1.0699c-2.3201,3.17-2.4199,7.31-2.55,11.08c-0.1799,8.58-0.6099,17.18-0.3599,25.76
		c9.9299,3.93,19.0299,9.6,28.2999,14.85c4.0499,2.51,9.02,1.71,13.5499,2.09c14.3601-0.06,28.78,0.53,43.1001-0.89
		c2.4299-0.29,6.4399-1.55,5.11-4.8C1094.0601,366.71,1090.23,363.53,1087.02,360.03z"/>
	<path opacity="0.97" enable-background="new    " d="M792.96,356.19c2.5701-0.4,6.73-0.76,6.95-4.14
		c0.6001-3.69-2.3099-8.85-6.5599-7.55c-1.75,0.37-2.3099,2.27-3.2799,3.53c-0.8501,1.52-2.55,2.98-1.77,4.91
		C788.96,354.82,790.73,356.83,792.96,356.19z"/>
	<path opacity="0.97" enable-background="new    " d="M754.97,376.79c3.54,0.37,3.3701-6.65-0.4399-5.18
		C751.1,371.9,751.73,376.89,754.97,376.79z"/>
	<path opacity="0.97" enable-background="new    " d="M309.4,391.61c-3.93-4.34-9.55-6.51-14.42-9.57c-2.38-1.17-4.77-3.35-7.6-2.62
		c-2.24,1.83-1.03,5.66,1.19,7.03c3.59,2.5099,7.36,4.74,11.03,7.1299c2.2599,1.4,5.04,3.01,7.73,1.76
		C308.78,394.87,310.72,393.17,309.4,391.61z"/>
	<path opacity="0.97" enable-background="new    " d="M296.04,396.9c-4.48-2.5099-8.79-5.7-13.9-6.7599
		c-1.64-0.26-2.19,1.55-2.09,2.84c-0.16,3.23,2.8701,5.21,5.25,6.77c4.56,2.77,9.16,5.49,13.64,8.41c2.2-1.05,4.36-2.26,5.96-4.15
		C302.96,400.57,299.18,398.99,296.04,396.9z"/>
	<path opacity="0.97" enable-background="new    " d="M833.5,403.39c-2.97-1.86-1.96-5.59-2.1699-8.4901
		c-4.4401-0.25-8.25,3.78-8.1501,8.13c-0.3398,4.39,3.51,8.25,7.7201,8.8c2.5499-0.74,4.97-2.22,6.74-4.2
		C837.85,405.33,834.78,404.82,833.5,403.39z"/>
	<path opacity="0.97" enable-background="new    " d="M733.4399,455.64c-2.8499,1.35-2.97,5.65-0.34,7.3c2.66,2.66,7-0.66,6.8-3.86
		C739.11,456.48,736.1699,453.98,733.4399,455.64z"/>
	<path opacity="0.97" enable-background="new    " d="M932.87,468.71c-0.67,1.67-1.4,3.91,0.09,5.38
		c1.8301,1.53,6.05,0.84,5.91-2.07C938.6799,469.11,935.1799,468.51,932.87,468.71z"/>
	<path opacity="0.97" enable-background="new    " d="M729.4199,485.39c-2.1199,0.91-4.3899,3.6299-2.7699,5.92
		c0.91,1.51,2.95,3.52,4.7799,2.09c1.4701-1.28,3.8701-2.86,3.3-5.1C733.6599,486.59,731.61,484.54,729.4199,485.39z"/>
	<path opacity="0.97" enable-background="new    " d="M625.4,517.52c-3.14,0.25-6.13,4.99-2.9401,7.02
		c3.29,0.34,9.2,1.71,10.1901-2.72C632.97,518.04,628.4199,516.55,625.4,517.52z"/>
	<path opacity="0.97" enable-background="new    " d="M689.4299,518.66c-6.72,2.41-5.3599,13.95,1.6301,14.98
		c4.5399,1.5,9.1799-2.07,9.58-6.65C702.23,520.98,694.5601,516.42,689.4299,518.66z"/>
</g>
</svg>
